<svg version="1.1" viewBox="0 0 96 96" xmlns="http://www.w3.org/2000/svg" xmlns:xlink="http://www.w3.org/1999/xlink" id="Icons_Grain" overflow="hidden"><path d=" M 33.09 69.45 C 18.09 85.22 7.74 85.45 7.3 85.45 L 7.3 80.45 C 7.39 80.45 16.3 80.04 29.52 66.03 L 29.52 66.03 L 29.57 66.03 L 60.3 35.17 C 61.2607 34.1783 62.8434 34.1531 63.8351 35.1138 C 64.8268 36.0744 64.852 37.6571 63.8913 38.6488 C 63.8712 38.6696 63.8508 38.69 63.83 38.71 Z" stroke="none" stroke-width="1" stroke-linecap="butt" fill="#FFFFFF" fill-opacity="1"/><path d=" M 80.1 29.52 C 85.17 24.44 84.69 14.31 84.69 14.31 C 84.69 14.31 74.57 13.83 69.49 18.91 C 64.41 23.99 65.6 33.4 65.6 33.4 C 65.6 33.4 75 34.59 80.1 29.52 Z" stroke="none" stroke-width="1" stroke-linecap="butt" fill="#FFFFFF" fill-opacity="1"/><path d=" M 60.68 52.4 C 53.5 52.26 46.54 59.62 46.54 59.62 C 46.54 59.62 53.21 67.26 60.39 67.4 C 67.57 67.54 73.53 60.16 73.53 60.16 C 73.53 60.16 67.86 52.54 60.68 52.4 Z" stroke="none" stroke-width="1" stroke-linecap="butt" fill="#FFFFFF" fill-opacity="1"/><path d=" M 46.54 66.54 C 39.36 66.4 32.39 73.77 32.39 73.77 C 32.39 73.77 39.07 81.4 46.24 81.54 C 53.41 81.68 59.39 74.3 59.39 74.3 C 59.39 74.3 53.72 66.68 46.54 66.54 Z" stroke="none" stroke-width="1" stroke-linecap="butt" fill="#FFFFFF" fill-opacity="1"/><path d=" M 74.82 38.26 C 67.65 38.12 60.68 45.48 60.68 45.48 C 60.68 45.48 67.35 53.11 74.53 53.26 C 81.71 53.41 87.67 46 87.67 46 C 87.67 46 82 38.4 74.82 38.26 Z" stroke="none" stroke-width="1" stroke-linecap="butt" fill="#FFFFFF" fill-opacity="1"/><path d=" M 39.36 52.45 C 39.36 52.45 46.73 45.45 46.58 38.3 C 46.43 31.15 38.83 25.45 38.83 25.45 C 38.83 25.45 31.44 31.45 31.59 38.6 C 31.74 45.75 39.36 52.45 39.36 52.45 Z" stroke="none" stroke-width="1" stroke-linecap="butt" fill="#FFFFFF" fill-opacity="1"/><path d=" M 25.22 66.59 C 25.22 66.59 32.58 59.59 32.44 52.45 C 32.3 45.31 24.69 39.6 24.69 39.6 C 24.69 39.6 17.3 45.6 17.44 52.74 C 17.58 59.88 25.22 66.59 25.22 66.59 Z" stroke="none" stroke-width="1" stroke-linecap="butt" fill="#FFFFFF" fill-opacity="1"/><path d=" M 53.5 38.31 C 53.5 38.31 60.87 31.31 60.73 24.16 C 60.59 17.01 53 11.31 53 11.31 C 53 11.31 45.62 17.31 45.76 24.46 C 45.9 31.61 53.5 38.31 53.5 38.31 Z" stroke="none" stroke-width="1" stroke-linecap="butt" fill="#FFFFFF" fill-opacity="1"/></svg>