<svg version="1.1" viewBox="0 0 96 96" xmlns="http://www.w3.org/2000/svg" xmlns:xlink="http://www.w3.org/1999/xlink" id="Icons_Lock" overflow="hidden"><path d=" M 50 69.2 L 50 74.5 L 46 74.5 L 46 69.2 C 43.7 68.4 42 66.2 42 63.5 C 42 60.2 44.7 57.5 48 57.5 C 51.3 57.5 54 60.2 54 63.5 C 54 66.1 52.3 68.3 50 69.2 Z M 33 32.5 C 33 24.2 39.7 17.5 48 17.5 C 56.3 17.5 63 24.2 63 32.5 L 63 43.6 L 48 42.5 L 33 43.6 L 33 32.5 Z M 69 44 L 69 32.5 C 69 20.9 59.6 11.5 48 11.5 C 36.4 11.5 27 20.9 27 32.5 L 27 44 L 20 44.5 L 20 82.5 L 48 84.5 L 76 82.5 L 76 44.5 L 69 44 Z" stroke="none" stroke-width="1" stroke-linecap="butt" fill="#FFFFFF" fill-opacity="1"/></svg>