<svg version="1.1" viewBox="0 0 96 96" xmlns="http://www.w3.org/2000/svg" xmlns:xlink="http://www.w3.org/1999/xlink" id="Icons_Pizza" overflow="hidden"><path d=" M 48.1 18 C 48.1 18 48 18 48.1 18 C 48 18 48 18 48 18 C 38.6 18 29.5 19.8 20.9 23.4 C 20.9 23.4 20.9 23.4 20.9 23.4 L 48.1 88 L 75.3 23.4 C 75.3 23.4 75.3 23.4 75.3 23.4 C 66.6 19.8 57.5 18 48.1 18 Z M 35.2 36 C 31.8 36 29.1 33.3 29.1 30 C 29.1 26.7 31.8 24 35.2 24 C 38.6 24 41.3 26.7 41.3 30 C 41.3 33.3 38.6 36 35.2 36 Z M 45.2 70.8 L 40.2 58.9 C 41.2 58.4 42.2 58 43.4 58 C 47 58 49.9 60.9 49.9 64.5 C 49.9 67.5 47.9 70 45.2 70.8 Z M 55.8 45 C 52.4 45 49.7 42.3 49.7 39 C 49.7 35.7 52.4 33 55.8 33 C 59.2 33 61.9 35.7 61.9 39 C 61.9 42.3 59.2 45 55.8 45 Z" stroke="none" stroke-width="1" stroke-linecap="butt" fill="#FFFFFF" fill-opacity="1"/><path d=" M 79.1 14.2 C 69.2 10.1 58.7 8 48 8 C 37.2 8 26.8 10.1 17 14.1 C 15.4 14.7 14.7 16.5 15.4 18 C 16.1 19.5 17.8 20.2 19.4 19.6 C 28.4 15.9 38 14 48 14 C 58 14 67.6 15.9 76.8 19.7 C 77.2 19.9 77.6 19.9 78 19.9 C 79.2 19.9 80.3 19.2 80.8 18.1 C 81.4 16.6 80.6 14.8 79.1 14.2 Z" stroke="none" stroke-width="1" stroke-linecap="butt" fill="#FFFFFF" fill-opacity="1"/></svg>